<!--<?xml version="1.0" encoding="UTF-8" standalone="no"?>-->
<svg width="82px" height="43px" viewBox="0 0 82 43" version="1.1" xmlns="http://www.w3.org/2000/svg" xmlns:xlink="http://www.w3.org/1999/xlink">
    <defs>
        <rect id="path-1" x="0" y="0" width="82" height="43"></rect>
        <path d="M48.0254068,26.7141462 C43.4412712,33.636746 43.046309,39.9996425 41.8493791,46.6051829 C40.6266562,53.3529172 36.1180107,59.2308821 29.3418616,62.0675387 C18.6412913,66.5475634 6.30628856,61.5712969 1.79182798,50.9528765 C-0.794343472,44.8698753 -0.100019822,38.3352557 2.69743381,32.8742878 C9.43597858,19.71811 26.1714658,7.21550957 41.4675205,1.2286793 C43.0577581,0.606645977 44.6557493,0.311978369 46.19714,0.311978369 C48.5262838,0.311978369 50.7247815,0.985943969 52.561192,2.21962415 C53.8738552,3.10170356 55.0023734,4.26883349 55.8606831,5.68408431 C56.1467863,6.15570636 56.4034263,6.65387157 56.6267264,7.17857995 C57.7090907,9.72438763 57.8971517,12.2515884 57.1573763,14.6581675 C56.8554444,14.989905 56.5388535,15.3254646 56.2084264,15.6658534 C52.2053108,19.7899745 49.6853473,23.3899305 48.0254068,26.7141462 L48.0254068,26.7141462 Z" id="path-3"></path>
    </defs>
    <g id="Page-1" stroke="none" stroke-width="1" fill="none" fill-rule="evenodd">
        <g id="Page-1-Copy-4">
            <mask id="mask-2" fill="white">
                <use xlink:href="#path-1"></use>
            </mask>
            <g id="Mask"></g>
            <g mask="url(#mask-2)">
                <g transform="translate(0.000000, 0.177931)">
                    <g id="Group-5" transform="translate(5.039758, 0.217346)">
                        <path d="M73.2730874,0.459889198 C73.2412982,0.473353123 73.2091212,0.487586415 73.1777197,0.502973757 C73.1777197,0.502973757 72.685374,0.743785667 71.8247384,1.16578353 C70.963715,1.58855077 69.737503,2.20250573 68.2845019,2.98225931 C67.5541246,3.36463477 66.772962,3.7993272 65.94838,4.26402494 C65.1206965,4.72295243 64.2639376,5.23727435 63.3738387,5.76429083 C62.4922687,6.30477124 61.5785217,6.86217772 60.6694268,7.46113002 C59.7510277,8.04392562 58.8438712,8.67749945 57.9312872,9.30453365 C57.0283951,9.9446471 56.1282167,10.5901461 55.2621536,11.2525712 C54.3852356,11.9019171 53.5544508,12.5808835 52.7411113,13.2271519 C52.6806342,13.2771608 52.6213202,13.3260156 52.5612307,13.3756398 C53.873894,14.2577192 55.0024122,15.4248491 55.8607218,16.8400999 C55.8870837,16.8154802 55.9130578,16.7908604 55.9394196,16.7662407 C56.6682462,16.1107399 57.4133551,15.4210023 58.2034342,14.7585772 C58.9826584,14.0819188 59.7963855,13.4202631 60.6147648,12.7620695 C61.4428359,12.1158011 62.2658672,11.4610697 63.1067315,10.8536544 C63.9359656,10.2312364 64.7748916,9.64728671 65.5851297,9.07910908 C66.405835,8.5240107 67.195914,7.9812222 67.963508,7.49190471 C68.728776,6.99797102 69.4545012,6.53365796 70.1368069,6.12166186 C71.4917266,5.28459043 72.6446683,4.61677977 73.4556817,4.15592886 C74.2674705,3.69546264 74.7307406,3.4319544 74.7307406,3.4319544 L74.7613669,3.41502832 C75.5351636,2.97379627 75.8453026,2.02131978 75.4514261,1.23541126 C75.0567742,0.447194641 74.0988325,0.114058676 73.2730874,0.459889198" id="Fill-1" fill="#FBB008"></path>
                        <path d="M52.561347,13.3754859 C49.5099671,11.3247378 45.4603273,10.8223411 41.4676756,12.3849257 C26.1712332,18.3713713 9.43613365,30.8739718 2.69720121,44.0301496 C-0.0998647528,49.4911174 -0.794188403,56.0257371 1.79198305,62.1087383 C6.30644363,72.7271586 18.6414464,77.7034252 29.3420167,73.2234004 C36.1177781,70.3867438 40.6268113,64.508779 41.8495342,57.76066 C43.4157361,49.1175897 43.6087976,40.889593 53.6111675,31.2794282 C57.6297934,27.4183593 58.5706775,22.9064058 56.6268814,18.3344417 C56.4035814,17.8097333 56.1465537,17.3115681 55.8604505,16.8399461 C55.0021408,15.4246952 53.8740103,14.2575653 52.561347,13.3754859" id="Fill-3" fill="#008DE5"></path>
                    </g>
                    <g id="Group-8" transform="translate(5.039758, 11.373170)">
                        <mask id="mask-4" fill="white">
                            <use xlink:href="#path-3"></use>
                        </mask>
                        <g id="Clip-7"></g>
                        <path d="M44.0281055,-3.39521712 C27.4019422,3.23634281 9.13979585,16.902611 1.68638072,31.1528289 L1.68638072,31.1528289 C-1.40725564,37.068108 -2.23842812,44.1139721 0.485755183,50.6343585 L0.485755183,50.6343585 C5.2417365,62.0163757 18.5292536,67.2269146 30.1633422,62.2733444 L30.1633422,62.2733444 C37.5303061,59.1370193 41.7834746,52.6131708 43.3927082,45.3753495 L43.3927082,45.3753495 C45.5415837,35.7128678 44.1835627,28.0542028 56.2084264,15.6658534 L56.2084264,15.6658534 C60.4453126,11.3012337 62.4073293,7.73060086 60.3596367,2.83088633 L60.3596367,2.83088633 C60.1247064,2.2677096 59.8525595,1.73453818 59.5486233,1.22983335 L59.5486233,1.22983335 C58.6372023,-0.283896469 57.430374,-1.52719374 56.0207923,-2.46159011 L56.0207923,-2.46159011 C54.0866881,-3.74335574 51.7691745,-4.44001767 49.3031819,-4.44001767 L49.3031819,-4.44001767 C47.5908271,-4.44001767 45.8063649,-4.10418892 44.0281055,-3.39521712" id="Fill-6" mask="url(#mask-4)"></path>
                    </g>
                    <g id="Group-19" transform="translate(0.000000, 0.602030)">
                        <path d="M57.309381,19.6815266 C58.6701158,22.8820938 57.158576,26.5715939 53.9331305,27.9222179 C50.7072974,29.2724572 46.9895063,27.772576 45.6283839,24.571624 C44.2676491,21.3710568 45.779189,17.6815568 49.0046344,16.3313175 C52.2304675,14.9806935 55.9486462,16.4809594 57.309381,19.6815266" id="Fill-9" fill="#FFFFFF"></path>
                        <path d="M55.6781663,19.9002577 C55.496735,19.4732589 55.2307908,19.1085789 54.9117353,18.8096798 C55.1722521,19.4267122 55.0125305,20.1633812 54.4616461,20.6057673 C53.7932966,21.1427856 52.8120944,21.0404598 52.2709019,20.3772653 C51.7293217,19.7136862 51.8324429,18.7404367 52.5011801,18.2034185 C52.6446193,18.0880134 52.8039532,18.0079992 52.9691023,17.9506814 C52.4523332,17.90375 51.9192818,17.9633759 51.4079401,18.1776447 C49.7490843,18.8719985 48.9717984,20.7688732 49.6715495,22.4149341 C50.3713006,24.0606104 52.2833074,24.8319009 53.9421633,24.1375471 C55.6006315,23.4431933 56.3779174,21.545934 55.6781663,19.9002577" id="Fill-11" fill="#333333"></path>
                        <path d="M51.6417849,0.569293203 C51.4506618,0.628534472 51.3153637,0.78279258 51.335135,0.975134361 C51.3568447,1.17978602 51.5227691,1.33981438 51.7483952,1.30788564 C55.6739794,0.751248528 59.4859752,4.37189021 57.5072885,8.34259394 C57.482865,8.29604723 57.4576662,8.24873115 57.4289784,8.19987634 C57.2099427,7.81057657 56.948263,7.43474073 56.6520802,7.08352464 C56.312478,6.67691411 55.9182139,6.30492511 55.4824686,5.97871345 C55.0765742,5.66288825 54.5725983,5.37091342 53.9395271,5.08547822 C52.8261282,4.6084706 51.5495186,4.36996679 50.2500362,4.39574059 C49.6999272,4.39804869 49.1060111,4.46152148 48.3814489,4.59462199 C47.7169761,4.71772073 47.1036763,4.9196796 46.6407938,5.08278543 C46.044164,5.31205684 45.5448402,5.54209761 45.1152977,5.78483293 C44.6989361,6.01295029 44.2868389,6.27992068 43.8538074,6.60267019 C43.5188573,6.85963881 43.1959251,7.13814971 42.8927642,7.43166326 C42.6117008,7.71363631 42.3942158,7.95214012 42.2317805,8.15602241 C42.1007468,8.30451026 42.0119695,8.42953242 41.9410252,8.52993483 C41.910399,8.57301939 41.8828741,8.61148775 41.8549616,8.647648 L41.7305184,8.81883219 C41.5948326,9.0057884 41.6304985,9.2654498 41.8107668,9.40970614 C41.9018702,9.48241133 42.0158462,9.51549412 42.1317607,9.50318424 C42.2476751,9.49087437 42.3519594,9.43432589 42.4252297,9.34392525 L42.5562634,9.18274284 C42.5841759,9.15004473 42.6159652,9.11042233 42.6516311,9.06541435 C42.7260645,8.97155156 42.8191062,8.85422307 42.9354083,8.73920269 C43.084275,8.57109597 43.2874161,8.3714452 43.5545233,8.12986393 C43.8402388,7.88174303 44.144175,7.64631669 44.4574154,7.43127858 C44.8633098,7.16084604 45.2463314,6.94042235 45.6305161,6.75654361 C46.0209035,6.56150905 46.4791339,6.37916904 47.0280799,6.20029118 C47.4521949,6.07603839 48.0135465,5.92408838 48.5950571,5.84830572 C49.2459613,5.76482939 49.7669948,5.73636281 50.2376307,5.76021319 C51.3196281,5.79560407 52.4020131,6.05449611 53.2828078,6.48880385 C53.7902728,6.75346614 54.1628272,6.99620147 54.4574592,7.25393946 C54.7807791,7.52398732 55.0664947,7.82442518 55.3076277,8.14794405 C55.5208483,8.42991711 55.7049933,8.72804687 55.8561861,9.03463966 C55.9965239,9.30699563 56.091504,9.5628102 56.1709771,9.78361856 C56.2225377,9.91594971 56.2547147,10.0390484 56.2803011,10.1379121 C56.2954204,10.1956147 56.308989,10.2463929 56.3213945,10.2848612 L56.3907881,10.5299047 C56.3946649,10.5433686 56.3989293,10.5572172 56.4031937,10.5702964 C56.4062951,10.5791442 56.4101718,10.5879919 56.4136609,10.5933775 C56.4276171,10.6329999 56.4458378,10.6726223 56.474138,10.726478 C56.4787901,10.7353257 56.4834422,10.7445581 56.4880942,10.7518671 C56.5140684,10.7961057 56.5450823,10.8391903 56.5908278,10.8934306 C56.6540186,10.9645971 56.7133327,11.0172987 56.7772988,11.0596139 C57.1269805,11.2896547 57.5762944,11.2550332 57.8868211,11.0065276 C57.9600914,10.9480557 58.0341371,10.8676568 58.0783319,10.7972597 C62.4260928,4.34265426 56.1085617,-0.667464448 51.6417849,0.569293203" id="Fill-13" fill="#008DE5"></path>
                    </g>
                </g>
            </g>
        </g>
    </g>
</svg>
